HIERARCHY
ROOT Hips
{
	OFFSET -3.958830 18.904000 13.208200
	CHANNELS 6 Xposition Yposition Zposition Zrotation Yrotation Xrotation 
	JOINT LHipJoint
	{
		OFFSET 0.000000 0.000000 0.000000
		CHANNELS 3 Zrotation Yrotation Xrotation
		JOINT LeftUpLeg
		{
			OFFSET 1.800000 -1.400000 0.085000
			CHANNELS 3 Zrotation Yrotation Xrotation
			JOINT LeftLeg
			{
				OFFSET 2.215000 -6.000000 0.000000
				CHANNELS 3 Zrotation Yrotation Xrotation
				JOINT LeftFoot
				{
					OFFSET 2.500000 -6.900000 0.000000
					CHANNELS 3 Zrotation Yrotation Xrotation
					JOINT LeftToeBase
					{
						OFFSET 0.200000 -0.500000 1.950000
						CHANNELS 3 Zrotation Yrotation Xrotation
						End Site
						{
							OFFSET 0.000000 0.000000 0.000000
						}
					}
				}
			}
		}
	}
	JOINT RHipJoint
	{
		OFFSET 0.000000 0.000000 0.000000
		CHANNELS 3 Zrotation Yrotation Xrotation
		JOINT RightUpLeg
		{
			OFFSET -1.800000 -1.400000 0.085000
			CHANNELS 3 Zrotation Yrotation Xrotation
			JOINT RightLeg
			{
				OFFSET -2.215000 -6.000000 0.000000
				CHANNELS 3 Zrotation Yrotation Xrotation
				JOINT RightFoot
				{
					OFFSET -2.500000 -6.900000 0.000000
					CHANNELS 3 Zrotation Yrotation Xrotation
					JOINT RightToeBase
					{
						OFFSET -0.200000 -0.500000 1.950000
						CHANNELS 3 Zrotation Yrotation Xrotation
						End Site
						{
							OFFSET 0.000000 0.000000 0.000000
						}
					}
				}
			}
		}
	}
	JOINT LowerBack
	{
		OFFSET 0.000000 0.000000 0.000000
		CHANNELS 3 Zrotation Yrotation Xrotation
		JOINT Spine
		{
			OFFSET -0.087000 1.940000 -0.288900
			CHANNELS 3 Zrotation Yrotation Xrotation
			JOINT Spine1
			{
				OFFSET 0.000000 1.950000 0.060000
				CHANNELS 3 Zrotation Yrotation Xrotation
				JOINT Neck
				{
					OFFSET 0.000000 0.000000 0.000000
					CHANNELS 3 Zrotation Yrotation Xrotation
					JOINT Neck1
					{
						OFFSET 0.000000 1.600000 0.340000
						CHANNELS 3 Zrotation Yrotation Xrotation
						JOINT Head
						{
							OFFSET 0.000000 1.667000 -0.240000
							CHANNELS 3 Zrotation Yrotation Xrotation
							End Site
							{
								OFFSET 0.000000 0.000000 0.000000
							}
						}
					}
				}
				JOINT LeftShoulder
				{
					OFFSET 0.000000 0.000000 0.000000
					CHANNELS 3 Zrotation Yrotation Xrotation
					JOINT LeftArm
					{
						OFFSET 2.700000 1.550000 -0.730000
						CHANNELS 3 Zrotation Yrotation Xrotation
						JOINT LeftForeArm
						{
							OFFSET 5.450000 0.000000 0.000000
							CHANNELS 3 Zrotation Yrotation Xrotation
							JOINT LeftHand
							{
								OFFSET 3.450000 0.000000 0.000000
								CHANNELS 3 Zrotation Yrotation Xrotation
								JOINT LeftHandIndex1
								{
									OFFSET 0.750000 0.000000 0.000000
									CHANNELS 3 Zrotation Yrotation Xrotation
									End Site
									{
										OFFSET 0.000000 0.000000 0.000000
									}
								}
							}
						}
					}
				}
				JOINT RightShoulder
				{
					OFFSET 0.000000 0.000000 0.000000
					CHANNELS 3 Zrotation Yrotation Xrotation
					JOINT RightArm
					{
						OFFSET -2.700000 1.550000 -0.730000
						CHANNELS 3 Zrotation Yrotation Xrotation
						JOINT RightForeArm
						{
							OFFSET -5.450000 0.000000 0.000000
							CHANNELS 3 Zrotation Yrotation Xrotation
							JOINT RightHand
							{
								OFFSET -3.450000 0.000000 0.000000
								CHANNELS 3 Zrotation Yrotation Xrotation
								JOINT RightHandIndex1
								{
									OFFSET -0.750000 0.000000 0.000000
									CHANNELS 3 Zrotation Yrotation Xrotation
									End Site
									{
										OFFSET 0.000000 0.000000 0.000000
									}
								}
							}
						}
					}
				}
			}
		}
	}
}
MOTION
Frames: 12
Frame Time: 0.016667
-1.269470 16.162240 -3.004890 -0.742611 -11.085378 -17.085219 -14.770794 10.653806 4.796820 38.984686 -3.478513 -19.616025 -18.049407 23.736820 50.506774 1.311610 12.784012 0.153114 0.157270 0.137460 0.144000 19.078287 -11.313566 1.226070 -33.131444 -3.167561 -21.156640 -8.436771 -5.497402 30.426988 -0.337809 -5.386349 2.336762 0.005220 0.466400 0.196920 -5.484804 1.713838 -8.151985 33.712390 -7.301589 31.098716 -2.460861 -5.721892 25.509883 -3.600002 0.335295 -10.767931 -5.055259 -0.697003 62.508140 -3.470170 2.843170 0.414730 18.372801 -20.185681 3.960833 4.323444 -24.988397 2.271980 -18.604144 -30.081608 6.598828 -3.657981 2.958006 0.156750 0.292570 -0.025710 0.113280 -9.909018 17.143665 7.921618 39.543730 24.585694 -3.164482 -25.420733 20.445221 -7.505269 2.257064 -1.382906 -0.073930 0.338090 0.106610 0.067350 
-1.238860 16.128180 -3.034810 0.132249 -9.091206 -18.393900 -14.829173 10.833776 4.860438 37.838333 -4.623717 -20.601361 -17.728763 23.614256 52.066615 1.365867 12.882727 0.123996 0.087840 0.061080 0.130090 18.992881 -11.281587 1.175431 -34.480556 -3.915120 -20.071176 -9.706902 -5.482434 31.657656 -0.383721 -5.660751 2.249121 -0.065020 0.444760 0.218430 -5.216995 1.225542 -8.265180 32.253367 -5.925801 34.158933 0.770613 -4.516843 25.096150 -4.142356 1.960585 -11.231340 -1.416387 -3.833371 59.962422 -5.628750 3.636000 1.201840 18.753586 -19.246308 3.493145 10.582680 -20.896174 -0.365372 -12.429244 -34.388361 5.848185 -3.583878 3.145360 0.151570 0.310040 -0.016100 0.082080 -9.531025 15.974722 8.718052 42.541260 19.650380 -5.267543 -23.717217 23.341449 -7.487747 2.229992 -1.360810 -0.062840 0.290740 0.130020 0.052270 
-1.204750 16.075980 -3.087670 1.233361 -6.885538 -19.069176 -14.974479 11.090547 5.030122 36.715283 -5.954262 -22.675735 -17.709516 23.519330 53.205561 1.286746 13.061141 0.026062 -0.138090 -0.250490 0.033070 18.840895 -11.027416 1.172877 -35.957094 -4.336536 -20.441849 -10.837215 -5.637835 35.597424 -0.365036 -6.199279 2.022716 -0.197640 0.472140 0.214720 -4.751436 0.285554 -8.469757 28.856144 -3.618345 39.166641 5.785768 -2.438134 23.421615 -6.370156 4.133878 -11.989651 3.593152 -5.601804 55.540398 -4.826560 5.389040 3.500860 20.158443 -17.357870 3.423511 16.178791 -12.695095 -3.090585 -0.080618 -39.702483 2.129697 -3.610065 3.495978 0.205500 0.352430 -0.114340 -0.071230 -7.394749 13.497946 8.343577 48.241460 14.644466 -10.512113 -24.461341 30.978177 -9.577849 2.140181 -1.296526 -0.173680 0.212380 0.294190 -0.038210 
-1.185420 16.026210 -3.163410 2.967272 -4.046232 -20.731692 -15.208880 11.732917 5.026184 34.335209 -7.469175 -23.708911 -16.551425 22.388288 53.953393 1.138199 12.931526 0.059208 -0.185380 -0.395870 0.105220 18.556132 -10.679771 1.197243 -37.842751 -4.530721 -20.386250 -12.268403 -5.553774 41.678268 -0.537486 -6.949765 1.745626 -0.238630 0.403560 0.189960 -3.989698 -1.294675 -8.590555 23.671750 -0.850045 47.009990 10.381076 0.361950 20.610204 -8.313796 5.595306 -12.292064 6.697188 -6.849849 51.452871 -6.199560 7.051080 2.193800 20.095551 -15.412433 2.687617 23.173638 -2.745465 -5.212818 14.949407 -41.820397 -2.881864 -3.832193 3.794156 0.355810 0.300660 -0.088270 -0.116430 -4.232862 11.981297 7.841664 54.271064 11.045460 -16.554004 -26.618259 38.675053 -12.721437 2.048306 -1.235621 -0.284260 0.215340 0.308410 -0.153440 
-1.158650 15.963810 -3.228010 3.487074 -2.745388 -21.541507 -15.453606 12.285444 5.049349 33.252992 -7.594248 -24.814551 -15.032534 21.632720 54.497081 0.812041 12.964629 -0.032926 -0.361740 -0.721400 0.087030 18.295210 -10.314010 1.164725 -37.857931 -3.339070 -20.725642 -12.832327 -5.379652 48.245901 -0.589036 -7.708823 1.440332 -0.300340 0.423160 0.129370 -3.297660 -2.684239 -8.673990 20.191521 2.571075 54.159928 14.661415 4.495812 17.009082 -10.188473 6.805742 -11.498750 9.483283 -7.820496 47.932381 -5.607130 7.180290 1.866450 21.041966 -10.260315 1.683232 24.974956 1.205096 -5.973867 32.362237 -36.242159 -7.810477 -4.675609 3.658346 0.527750 0.297510 -0.199720 -0.272080 -1.497565 7.502444 6.370418 59.415304 8.655894 -21.185566 -27.180912 46.560169 -15.260493 1.921230 -1.091582 -0.515040 0.242930 0.490770 -0.316950 
-1.141270 15.909310 -3.276620 4.946015 -1.762431 -22.338523 -15.702712 12.886303 4.887770 30.992607 -7.174252 -25.372603 -12.609019 20.808426 55.579137 0.568602 13.117787 -0.124182 -0.648950 -1.192360 -0.022400 18.043585 -9.922799 1.123528 -38.236688 -1.603185 -20.496384 -12.887897 -5.218831 53.788085 -0.598690 -8.434667 1.155127 -0.459320 0.575860 0.162790 -2.618269 -4.119428 -8.732620 15.730585 7.087598 60.322789 17.949500 8.772638 13.487349 -12.130676 8.195007 -11.461126 12.965870 -8.170900 45.197991 -4.500680 7.140050 4.697120 22.754890 -6.796378 1.613379 22.627996 4.624096 -9.773004 44.268903 -22.398022 -7.894355 -5.859809 3.310957 0.654070 0.378910 -0.339020 -0.416690 1.244018 4.574190 5.105476 63.270827 8.269527 -23.566536 -30.597811 47.996126 -17.093928 1.879049 -0.941206 -0.734510 0.258540 0.751760 -0.415820 
-1.127880 15.832350 -3.257900 5.388060 -0.576607 -20.325096 -16.027084 13.029541 5.120889 30.393387 -5.927205 -29.325678 -11.972211 21.988454 57.533135 0.561615 13.463471 -0.309167 -0.612430 -1.155690 0.024630 17.836963 -9.315818 0.999270 -37.762962 -0.091181 -20.946709 -12.348482 -5.709964 58.851852 -0.753110 -9.017585 0.924399 -0.418330 0.508530 0.148210 -1.905653 -5.423019 -8.906974 10.518231 12.191485 58.516827 23.350932 12.110626 13.898816 -12.406641 9.038166 -11.481808 15.747770 -10.265318 48.803029 -2.189300 5.834950 3.824260 23.180289 -4.468263 2.871377 22.600252 2.313070 -9.438359 52.479311 3.445147 -3.249877 -6.381452 2.830768 0.725410 0.313350 -0.290000 -0.459140 1.996417 3.129621 4.967766 65.140223 7.305035 -25.140785 -35.265672 48.347095 -19.448554 1.907746 -0.874840 -0.748590 0.264370 0.761040 -0.442550 
-1.145880 15.779850 -3.255230 6.009368 1.936723 -20.199981 -16.074426 13.265076 4.942326 28.336929 -4.456163 -31.665192 -7.293847 20.079635 59.106450 0.461114 13.089159 -0.239668 -0.510750 -1.022640 0.044890 17.784580 -9.331980 0.973418 -37.948013 1.349990 -19.144813 -11.167261 -6.426691 61.971986 -0.894396 -9.454357 0.770728 -0.347900 0.477540 0.171930 -1.737465 -5.761593 -8.741181 7.467860 15.012870 58.395508 25.811123 14.451226 16.107327 -12.589811 9.421742 -11.072784 17.978397 -11.438193 48.914391 0.982750 4.409890 2.605120 23.084277 -0.942895 7.456132 26.756508 1.034862 -3.355551 54.960257 37.613137 4.253784 -8.626008 2.574898 0.724290 0.277940 -0.246400 -0.423640 2.491337 1.055194 4.013576 65.838292 7.274546 -26.210770 -36.643003 49.288342 -20.795944 1.913250 -0.905631 -0.695190 0.246150 0.711510 -0.413290 
-1.174630 15.727540 -3.224080 5.145493 5.318299 -19.480485 -16.075523 12.964933 4.793282 27.214461 -2.625749 -34.715720 -3.366061 18.916622 61.252453 0.360440 13.050004 -0.230557 -0.466220 -0.938320 0.040250 17.865417 -9.513255 0.829305 -37.185480 2.759885 -16.804667 -9.486893 -7.774176 64.297937 -0.978572 -9.856906 0.680924 -0.259150 0.549350 0.126060 -1.814481 -4.973847 -8.123331 8.678808 17.491454 55.846346 29.680948 17.212196 22.384171 -11.086951 8.231660 -12.467247 20.456544 -12.289969 47.269602 3.545740 3.275450 0.883290 20.914005 8.359159 21.997019 37.189128 0.830838 15.491078 -64.278041 71.686984 -160.994942 -13.795748 4.636775 0.719999 0.300670 -0.275780 -0.400570 3.071056 -6.083195 -0.958844 59.976468 7.316524 -22.470608 -28.428026 43.356674 -14.513576 1.939538 -0.943521 -0.742480 0.357660 0.707370 -0.392040 
-1.197390 15.662120 -3.206530 3.923705 8.883026 -19.621759 -16.061940 13.214377 5.100567 26.638746 -1.584748 -38.006992 -0.054740 17.579569 63.226052 0.440163 12.914567 -0.157807 -0.342320 -0.752160 0.063840 17.784823 -9.543844 0.807401 -36.168474 3.743962 -13.585239 -8.251353 -8.883823 65.624688 -1.106512 -10.151474 0.617867 -0.184180 0.505790 0.143550 -1.736066 -5.481466 -8.472900 5.977049 15.428756 54.424778 26.253451 14.018887 22.223431 -10.931050 10.482462 -10.019939 19.767084 -11.781842 48.022627 2.874350 3.432470 1.022230 22.599564 0.286787 9.687578 39.270105 -1.347076 -1.718880 130.287010 75.795990 45.758500 -3.555533 6.099153 0.619110 0.303220 -0.255300 -0.318210 -1.855794 -0.229727 3.466252 58.196949 6.248729 -18.928918 -15.894511 41.320752 -9.187125 1.935628 -1.133681 -0.638770 0.306170 0.600330 -0.350560 
-1.264910 15.635670 -3.202890 3.766733 9.823008 -21.404080 -15.953583 13.016283 5.213244 28.824600 -0.572060 -36.371864 -2.319269 19.204125 62.699416 0.603793 13.051441 -0.182921 -0.182840 -0.501370 0.112100 17.881638 -9.738070 0.737683 -35.748573 4.494323 -11.511791 -8.472456 -8.670170 66.842991 -1.237876 -10.343807 0.557075 -0.072040 0.426720 0.138510 -2.048976 -4.868562 -8.421609 5.171435 14.067324 54.977842 22.127596 12.903858 23.677238 -11.110574 11.375087 -8.007786 17.517290 -11.278900 47.286970 2.569200 3.125670 -0.662750 25.554898 -5.108201 1.895600 37.722505 -9.623747 -15.935451 134.267002 47.912857 66.534892 -5.162690 3.192312 0.526470 0.260320 -0.203230 -0.234860 -5.926502 4.033214 6.178385 57.306932 5.649839 -15.606129 -5.419917 37.008868 -5.097068 1.990175 -1.264650 -0.527740 0.270280 0.468830 -0.298200 
-1.354360 15.637160 -3.118290 3.182174 11.456984 -21.084466 -15.770492 12.555777 5.213236 30.979711 -0.532985 -34.414839 -4.976891 19.876202 59.573617 0.648742 12.835239 -0.051189 -0.183420 -0.454020 0.037700 18.055686 -10.082974 0.836134 -35.950621 3.569387 -11.133761 -7.937976 -9.983423 67.341877 -1.284784 -10.566859 0.553450 -0.060510 0.510070 0.092400 -2.569506 -3.611646 -8.387802 5.628164 12.272555 51.383670 17.950615 12.374930 26.954445 -11.452396 11.436607 -9.055805 16.123302 -11.019725 50.306734 4.827240 2.853630 1.717700 23.151980 -8.891398 3.242437 39.647409 -20.402219 -17.860340 139.808163 32.788824 50.495121 -5.090318 2.717563 0.441570 0.292990 -0.252380 -0.158150 -4.010817 6.605634 6.106163 55.857829 5.882059 -12.684892 -3.208338 30.107699 -3.522896 2.064969 -1.240042 -0.518190 0.313660 0.431360 -0.234500 
